custom-analysis
version=1
nRows=4
nColumns=146
inDegrees=no

This file contains tibia displacement and acting force.

Units are S.I. units (seconds, meters, Newtons, ...)
Angles are in degrees.

endheader
time	APT	SIT	knee_angle	aACL_R_force	pACL_R_force	aPCL_R_force	pPCL_R_force	aMCL_R_force	mMCL_R_force	pMCL_R_force	aLCL_R_force	mLCL_R_force	pLCL_R_force	aPCL_L_force	pPCL_L_force	aMCL_L_force	aLCL_L_force	aACL_R_length	pACL_R_length	aPCL_R_length	pPCL_R_length	aMCL_R_length	mMCL_R_length	pMCL_R_length	aLCL_R_length	mLCL_R_length	pLCL_R_length	aPCL_L_length	pPCL_L_length	aMCL_L_length	aLCL_L_length	aACL_R_strain	pACL_R_strain	aPCL_R_strain	pPCL_R_strain	aMCL_R_strain	mMCL_R_strain	pMCL_R_strain	aLCL_R_strain	mLCL_R_strain	pLCL_R_strain	aPCL_L_strain	pPCL_L_strain	aMCL_L_strain	aLCL_L_strain	femur_lat_meniscii_l.femur_lat_l.force.X	femur_lat_meniscii_l.femur_lat_l.force.Y	femur_lat_meniscii_l.femur_lat_l.force.Z	femur_lat_meniscii_l.femur_lat_l.torque.X	femur_lat_meniscii_l.femur_lat_l.torque.Y	femur_lat_meniscii_l.femur_lat_l.torque.Z	femur_lat_meniscii_l.meniscus_lat_l.force.X	femur_lat_meniscii_l.meniscus_lat_l.force.Y	femur_lat_meniscii_l.meniscus_lat_l.force.Z	femur_lat_meniscii_l.meniscus_lat_l.torque.X	femur_lat_meniscii_l.meniscus_lat_l.torque.Y	femur_lat_meniscii_l.meniscus_lat_l.torque.Z	femur_med_meniscii_l.femur_med_l.force.X	femur_med_meniscii_l.femur_med_l.force.Y	femur_med_meniscii_l.femur_med_l.force.Z	femur_med_meniscii_l.femur_med_l.torque.X	femur_med_meniscii_l.femur_med_l.torque.Y	femur_med_meniscii_l.femur_med_l.torque.Z	femur_med_meniscii_l.meniscus_med_l.force.X	femur_med_meniscii_l.meniscus_med_l.force.Y	femur_med_meniscii_l.meniscus_med_l.force.Z	femur_med_meniscii_l.meniscus_med_l.torque.X	femur_med_meniscii_l.meniscus_med_l.torque.Y	femur_med_meniscii_l.meniscus_med_l.torque.Z	femur_lat_meniscii_r.femur_lat_r.force.X	femur_lat_meniscii_r.femur_lat_r.force.Y	femur_lat_meniscii_r.femur_lat_r.force.Z	femur_lat_meniscii_r.femur_lat_r.torque.X	femur_lat_meniscii_r.femur_lat_r.torque.Y	femur_lat_meniscii_r.femur_lat_r.torque.Z	femur_lat_meniscii_r.meniscus_lat_r.force.X	femur_lat_meniscii_r.meniscus_lat_r.force.Y	femur_lat_meniscii_r.meniscus_lat_r.force.Z	femur_lat_meniscii_r.meniscus_lat_r.torque.X	femur_lat_meniscii_r.meniscus_lat_r.torque.Y	femur_lat_meniscii_r.meniscus_lat_r.torque.Z	femur_med_meniscii_r.femur_med_r.force.X	femur_med_meniscii_r.femur_med_r.force.Y	femur_med_meniscii_r.femur_med_r.force.Z	femur_med_meniscii_r.femur_med_r.torque.X	femur_med_meniscii_r.femur_med_r.torque.Y	femur_med_meniscii_r.femur_med_r.torque.Z	femur_med_meniscii_r.meniscus_med_r.force.X	femur_med_meniscii_r.meniscus_med_r.force.Y	femur_med_meniscii_r.meniscus_med_r.force.Z	femur_med_meniscii_r.meniscus_med_r.torque.X	femur_med_meniscii_r.meniscus_med_r.torque.Y	femur_med_meniscii_r.meniscus_med_r.torque.Z	femur_med_tibia_l.tibia_upper_l.force.X	femur_med_tibia_l.tibia_upper_l.force.Y	femur_med_tibia_l.tibia_upper_l.force.Z	femur_med_tibia_l.tibia_upper_l.torque.X	femur_med_tibia_l.tibia_upper_l.torque.Y	femur_med_tibia_l.tibia_upper_l.torque.Z	femur_med_tibia_l.femur_med_l.force.X	femur_med_tibia_l.femur_med_l.force.Y	femur_med_tibia_l.femur_med_l.force.Z	femur_med_tibia_l.femur_med_l.torque.X	femur_med_tibia_l.femur_med_l.torque.Y	femur_med_tibia_l.femur_med_l.torque.Z	femur_lat_tibia_l.tibia_upper_l.force.X	femur_lat_tibia_l.tibia_upper_l.force.Y	femur_lat_tibia_l.tibia_upper_l.force.Z	femur_lat_tibia_l.tibia_upper_l.torque.X	femur_lat_tibia_l.tibia_upper_l.torque.Y	femur_lat_tibia_l.tibia_upper_l.torque.Z	femur_lat_tibia_l.femur_lat_l.force.X	femur_lat_tibia_l.femur_lat_l.force.Y	femur_lat_tibia_l.femur_lat_l.force.Z	femur_lat_tibia_l.femur_lat_l.torque.X	femur_lat_tibia_l.femur_lat_l.torque.Y	femur_lat_tibia_l.femur_lat_l.torque.Z	femur_med_tibia_r.tibia_upper_r.force.X	femur_med_tibia_r.tibia_upper_r.force.Y	femur_med_tibia_r.tibia_upper_r.force.Z	femur_med_tibia_r.tibia_upper_r.torque.X	femur_med_tibia_r.tibia_upper_r.torque.Y	femur_med_tibia_r.tibia_upper_r.torque.Z	femur_med_tibia_r.femur_med_r.force.X	femur_med_tibia_r.femur_med_r.force.Y	femur_med_tibia_r.femur_med_r.force.Z	femur_med_tibia_r.femur_med_r.torque.X	femur_med_tibia_r.femur_med_r.torque.Y	femur_med_tibia_r.femur_med_r.torque.Z	femur_lat_tibia_r.tibia_upper_r.force.X	femur_lat_tibia_r.tibia_upper_r.force.Y	femur_lat_tibia_r.tibia_upper_r.force.Z	femur_lat_tibia_r.tibia_upper_r.torque.X	femur_lat_tibia_r.tibia_upper_r.torque.Y	femur_lat_tibia_r.tibia_upper_r.torque.Z	femur_lat_tibia_r.femur_lat_r.force.X	femur_lat_tibia_r.femur_lat_r.force.Y	femur_lat_tibia_r.femur_lat_r.force.Z	femur_lat_tibia_r.femur_lat_r.torque.X	femur_lat_tibia_r.femur_lat_r.torque.Y	femur_lat_tibia_r.femur_lat_r.torque.Z	femur_lat_meniscii_force_r	femur_med_meniscii_force_r	femur_lat_tibia_force_r	femur_med_tibia_force_r
      0.23847124	      0.00493905	      0.00028847	     80.00011296	      0.00000000	      0.00000000	    591.52394025	    231.23860492	     26.00364955	     12.34299900	      3.37209018	      0.00000000	      0.00000000	      0.00000000	      0.00000000	      0.00000000	      0.00000001	      0.00000000	      0.03200572	      0.02532149	      0.03515070	      0.03172199	      0.06280404	      0.06218824	      0.06183325	      0.04928933	      0.04373520	      0.03828892	      0.01525851	      0.01651186	      0.06550154	      0.04489616	     -0.01537524	     -0.04658380	      0.13041837	      0.06136932	      0.06398833	      0.04005011	      0.01820001	     -0.11947491	     -0.22343236	     -0.26849550	      0.00000079	     -0.32847694	      0.00000060	     -0.00000086	      2.76307435	     50.99597937	     -9.56042239	      5.21997485	     -0.02578839	      1.48581788	     -2.76307435	    -50.99597937	      9.56042239	     -1.74637766	      0.02558040	     -0.48301696	     -3.31599387	     20.97615968	     -3.40468921	      0.94473225	     -0.02138609	     -1.00501789	      3.31599387	    -20.97615968	      3.40468921	      0.28075727	      0.00368718	     -0.29758878	    229.21434118	     44.62857099	     40.21240852	    -17.39973025	      5.66037377	     93.45423220	   -229.21434118	    -44.62857099	    -40.21240852	      1.59719325	     -7.88491379	     -0.90951064	    118.50687004	    -48.83307959	    -17.81106995	      6.24055594	     -2.38476270	     47.95622736	   -118.50687004	     48.83307959	     17.81106995	      0.61822395	      2.30605928	     -2.10519927	      0.00000000	      0.00000000	      0.00000000	      0.00000000	      0.00000000	      0.00000000	      0.00000000	      0.00000000	      0.00000000	      0.00000000	      0.00000000	      0.00000000	      0.00000000	      0.00000000	      0.00000000	      0.00000000	      0.00000000	      0.00000000	      0.00000000	      0.00000000	      0.00000000	      0.00000000	      0.00000000	      0.00000000	   -429.21617328	    -41.46985463	     84.49222778	     -1.19074117	      7.87042122	     -2.08763445	    429.21617328	     41.46985463	    -84.49222778	     35.04819825	     -7.60083333	    174.21409289	     -4.20491975	     -1.53665747	     -1.23444049	      0.05512061	     -0.15704771	      0.00771034	      4.20491975	      1.53665747	      1.23444049	     -0.53942101	      0.10245109	      1.70994285	    236.95561050	    129.40549494	      4.64397563	    439.41462061
      0.24025702	      0.00495170	      0.00028698	     80.00011296	      0.00000000	      0.00000000	    590.93033334	    230.64646215	     25.87048425	     12.19755993	      3.22354636	      0.00000000	      0.00000000	      0.00000000	      0.00000000	      0.00000000	      0.00000001	      0.00000000	      0.03201775	      0.02533240	      0.03514724	      0.03171768	      0.06280928	      0.06219212	      0.06183596	      0.04928934	      0.04373480	      0.03828715	      0.01525851	      0.01651186	      0.06550154	      0.04489616	     -0.01500505	     -0.04617327	      0.13030715	      0.06122495	      0.06407711	      0.04011502	      0.01824471	     -0.11947473	     -0.22343942	     -0.26852929	      0.00000079	     -0.32847694	      0.00000060	     -0.00000086	      2.76307435	     50.99597937	     -9.56042239	      5.21997485	     -0.02578839	      1.48581788	     -2.76307435	    -50.99597937	      9.56042239	     -1.74637766	      0.02558040	     -0.48301696	     -3.31599387	     20.97615968	     -3.40468921	      0.94473225	     -0.02138609	     -1.00501789	      3.31599387	    -20.97615968	      3.40468921	      0.28075727	      0.00368718	     -0.29758878	    228.25275784	     45.17224873	     41.77535806	    -18.05992321	      5.65112062	     93.05499098	   -228.25275784	    -45.17224873	    -41.77535806	      1.63728116	     -7.91652619	     -0.87512752	    118.84378715	    -48.63038105	    -17.40854049	      6.08381558	     -2.38733298	     48.09044352	   -118.84378715	     48.63038105	     17.40854049	      0.61538484	      2.29474678	     -2.09802669	      0.00000000	      0.00000000	      0.00000000	      0.00000000	      0.00000000	      0.00000000	      0.00000000	      0.00000000	      0.00000000	      0.00000000	      0.00000000	      0.00000000	      0.00000000	      0.00000000	      0.00000000	      0.00000000	      0.00000000	      0.00000000	      0.00000000	      0.00000000	      0.00000000	      0.00000000	      0.00000000	      0.00000000	   -428.95027153	    -41.61770598	     83.22039946	     -1.17957827	      7.81513553	     -2.07392779	    428.95027153	     41.61770598	    -83.22039946	     34.53262377	     -7.58344841	    174.10434703	     -3.68110933	     -1.34981954	     -1.10331053	      0.04868846	     -0.13844316	      0.00692555	      3.68110933	      1.34981954	      1.10331053	     -0.48165994	      0.08998438	      1.49693572	    236.40015664	    129.58324346	      4.07306676	    438.92596617
      0.24260271	      0.00496812	      0.00028556	     80.00011296	      0.00000000	      0.00000000	    589.87550058	    229.16982244	     25.76006837	     12.02823270	      2.99866838	      0.00000000	      0.00000000	      0.00000000	      0.00000000	      0.00000000	      0.00000001	      0.00000000	      0.03203253	      0.02534563	      0.03514242	      0.03171178	      0.06281535	      0.06219642	      0.06183877	      0.04928910	      0.04373406	      0.03828466	      0.01525851	      0.01651186	      0.06550154	      0.04489616	     -0.01455036	     -0.04567492	      0.13015217	      0.06102742	      0.06417990	      0.04018695	      0.01829095	     -0.11947898	     -0.22345264	     -0.26857692	      0.00000079	     -0.32847694	      0.00000060	     -0.00000086	      2.76307435	     50.99597937	     -9.56042239	      5.21997485	     -0.02578839	      1.48581788	     -2.76307435	    -50.99597937	      9.56042239	     -1.74637766	      0.02558040	     -0.48301696	     -3.31599387	     20.97615968	     -3.40468921	      0.94473225	     -0.02138609	     -1.00501789	      3.31599387	    -20.97615968	      3.40468921	      0.28075727	      0.00368718	     -0.29758878	    228.47728830	     45.43960826	     40.30058583	    -17.46082106	      5.63841973	     93.14878058	   -228.47728830	    -45.43960826	    -40.30058583	      1.62674964	     -7.86646991	     -0.86805184	    117.08941406	    -48.46019688	    -18.45233477	      6.50649432	     -2.36138107	     47.39149605	   -117.08941406	     48.46019688	     18.45233477	      0.60913528	      2.30504944	     -2.09128049	      0.00000000	      0.00000000	      0.00000000	      0.00000000	      0.00000000	      0.00000000	      0.00000000	      0.00000000	      0.00000000	      0.00000000	      0.00000000	      0.00000000	      0.00000000	      0.00000000	      0.00000000	      0.00000000	      0.00000000	      0.00000000	      0.00000000	      0.00000000	      0.00000000	      0.00000000	      0.00000000	      0.00000000	   -428.80775151	    -41.25368478	     85.60111367	     -1.19502394	      7.90597490	     -2.07869851	    428.80775151	     41.25368478	    -85.60111367	     35.49659142	     -7.61194770	    174.04968229	     -3.11361403	     -1.13637795	     -0.91473298	      0.04082455	     -0.11640281	      0.00564240	      3.11361403	      1.13637795	      0.91473298	     -0.39971265	      0.07589326	      1.26628417	    236.41228074	    128.05783938	      3.43841295	    439.21009201
      0.24425245	      0.00497969	      0.00028479	     80.00011296	      0.00000000	      0.00000000	    589.37166071	    228.93249235	     25.74335895	     12.01484026	      3.00332413	      0.00000000	      0.00000000	      0.00000000	      0.00000000	      0.00000000	      0.00000001	      0.00000000	      0.03204341	      0.02535550	      0.03513866	      0.03170722	      0.06281946	      0.06219926	      0.06184054	      0.04928866	      0.04373323	      0.03828256	      0.01525851	      0.01651186	      0.06550154	      0.04489616	     -0.01421564	     -0.04530346	      0.13003134	      0.06087487	      0.06424958	      0.04023452	      0.01832000	     -0.11948692	     -0.22346731	     -0.26861693	      0.00000079	     -0.32847694	      0.00000060	     -0.00000086	      2.76307435	     50.99597937	     -9.56042239	      5.21997485	     -0.02578839	      1.48581788	     -2.76307435	    -50.99597937	      9.56042239	     -1.74637766	      0.02558040	     -0.48301696	     -3.31599387	     20.97615968	     -3.40468921	      0.94473225	     -0.02138609	     -1.00501789	      3.31599387	    -20.97615968	      3.40468921	      0.28075727	      0.00368718	     -0.29758878	    227.77749748	     46.28821214	     42.09558652	    -18.21705412	      5.64470169	     92.85669805	   -227.77749748	    -46.28821214	    -42.09558652	      1.67191473	     -7.92122827	     -0.82836181	    117.33423981	    -48.19257915	    -17.28215221	      6.04439815	     -2.35380911	     47.48789914	   -117.33423981	     48.19257915	     17.28215221	      0.60614894	      2.26280224	     -2.08135871	      0.00000000	      0.00000000	      0.00000000	      0.00000000	      0.00000000	      0.00000000	      0.00000000	      0.00000000	      0.00000000	      0.00000000	      0.00000000	      0.00000000	      0.00000000	      0.00000000	      0.00000000	      0.00000000	      0.00000000	      0.00000000	      0.00000000	      0.00000000	      0.00000000	      0.00000000	      0.00000000	      0.00000000	   -429.81917205	    -41.70382553	     82.90370415	     -1.17543319	      7.80725832	     -2.06557626	    429.81917205	     41.70382553	    -82.90370415	     34.40598173	     -7.59667099	    174.45726013	     -2.73681385	     -1.00291313	     -0.82834974	      0.03630038	     -0.10333388	      0.00517774	      2.73681385	      1.00291313	      0.82834974	     -0.36142498	      0.06702670	      1.11297129	    236.21436312	    128.01766011	      3.03020595	    439.72349708
